<svg width="2858" height="633" viewBox="0 0 2858 633" fill="none" xmlns="http://www.w3.org/2000/svg">
<ellipse cx="338.379" cy="316.162" rx="338.379" ry="316.162" fill="url(#paint0_radial_2075_6355)"/>
<g filter="url(#filter0_i_2075_6355)">
<path d="M335.817 536.625C275.308 536.625 221.476 518.728 174.32 482.934L215.634 410.068C250.687 439.044 289.497 453.532 332.062 453.532C351.675 453.532 367.741 449.697 380.26 442.027C393.197 433.93 399.665 422.638 399.665 408.15C399.665 393.236 392.571 381.304 378.382 372.356C364.194 363.407 342.912 354.246 314.535 344.871C231.074 318.452 189.343 273.496 189.343 210.004C189.343 171.227 203.74 140.547 232.534 117.962C261.328 95.3781 297.008 84.0859 339.573 84.0859C389.232 84.0859 436.805 98.7871 482.291 128.189L443.482 197.86C408.428 176.98 375.044 166.54 343.329 166.54C325.802 166.54 311.405 170.162 300.138 177.406C288.871 184.224 283.237 193.812 283.237 206.169C283.237 220.231 290.122 231.736 303.894 240.685C318.082 249.207 337.695 257.517 362.734 265.613C404.464 279.249 436.597 296.933 459.131 318.665C482.083 340.397 493.559 368.521 493.559 403.037C493.559 443.944 478.744 476.542 449.116 500.831C419.487 524.694 381.721 536.625 335.817 536.625Z" fill="url(#paint1_radial_2075_6355)"/>
</g>
<path d="M780.758 308.684H846.385C848.886 327.434 856.073 340.56 867.949 348.06C880.449 356.81 897.637 361.186 919.513 361.186C938.889 361.186 953.577 357.748 963.578 350.873C973.578 343.997 978.578 333.997 978.578 320.871C978.578 300.871 950.452 284.62 894.2 272.12L892.325 271.182C892.325 271.182 889.825 270.557 884.824 269.307C852.948 262.432 831.697 255.244 821.072 247.744C808.571 240.868 799.821 230.868 794.821 217.742C788.571 206.492 785.445 192.116 785.445 174.616C785.445 143.989 796.071 119.926 817.322 102.425C838.573 85.5496 869.511 77.1118 910.138 77.1118C948.264 77.1118 977.641 85.8621 998.266 103.363C1019.52 122.739 1030.77 148.052 1032.02 179.303H994.516C980.141 179.303 969.828 172.741 963.578 159.615C960.452 153.365 956.077 148.052 950.452 143.677C939.202 135.552 923.889 131.489 904.513 131.489C885.762 131.489 872.324 134.927 864.199 141.802C854.823 148.677 850.136 158.365 850.136 170.866C850.136 187.741 868.261 200.242 904.513 208.367C915.138 211.492 922.951 213.367 927.951 213.992C939.202 217.742 948.89 220.868 957.015 223.368C965.765 225.243 972.64 226.805 977.641 228.055C986.391 231.805 995.141 235.556 1003.89 239.306C1016.39 246.806 1026.08 256.494 1032.96 268.369C1039.83 281.495 1043.27 295.87 1043.27 311.496C1043.27 345.247 1032.02 371.499 1009.52 390.249C987.016 407.75 955.14 416.5 913.888 416.5C871.386 416.5 839.51 407.437 818.259 389.312C795.133 371.186 782.633 344.31 780.758 308.684ZM1273.9 409H1209.21V262.744V249.619C1209.21 234.618 1204.52 223.68 1195.15 216.805C1186.4 209.93 1176.4 206.492 1165.15 206.492C1153.9 206.492 1143.9 209.93 1135.15 216.805C1126.4 223.68 1122.02 234.618 1122.02 249.619V409H1056.39V262.744C1056.39 220.242 1067.33 191.804 1089.21 177.428C1111.71 163.053 1136.4 155.24 1163.27 153.99C1177.65 153.99 1191.71 155.552 1205.46 158.678C1219.21 161.803 1231.71 168.053 1242.96 177.428C1252.34 169.303 1263.28 163.678 1275.78 160.553C1288.9 156.802 1302.34 154.615 1316.09 153.99C1343.59 153.99 1368.91 161.178 1392.03 175.553C1415.16 189.929 1426.72 218.992 1426.72 262.744V409H1393.91C1384.53 409 1376.72 406.187 1370.47 400.562C1364.84 394.312 1362.03 386.499 1362.03 377.124V249.619C1362.03 234.618 1357.34 223.68 1347.97 216.805C1339.22 209.93 1329.22 206.492 1317.97 206.492C1306.72 206.492 1296.4 209.93 1287.03 216.805C1278.28 223.68 1273.9 234.618 1273.9 249.619V262.744V409ZM1588.92 283.37C1580.16 287.745 1567.98 291.808 1552.35 295.558C1537.98 298.683 1530.79 300.246 1530.79 300.246C1519.54 303.371 1511.41 307.433 1506.41 312.434C1502.04 319.309 1499.85 326.184 1499.85 333.059C1499.85 342.435 1502.66 349.935 1508.29 355.56C1513.91 360.561 1522.04 363.061 1532.66 363.061C1550.16 363.061 1563.91 358.06 1573.91 348.06C1583.91 338.06 1588.92 324.309 1588.92 306.808V283.37ZM1603.92 398.687C1590.79 405.562 1576.73 409.625 1561.73 410.875C1547.35 412.75 1534.54 413.688 1523.29 413.688C1500.79 413.688 1481.1 407.75 1464.22 395.874C1447.35 383.374 1438.91 363.061 1438.91 334.935C1438.91 308.684 1446.41 289.933 1461.41 278.682C1477.04 267.432 1496.72 259.932 1520.47 256.181C1523.6 256.181 1527.35 255.869 1531.73 255.244C1536.1 253.994 1541.1 253.056 1546.73 252.431C1574.23 248.681 1587.98 240.556 1587.98 228.055C1587.98 218.68 1582.98 212.742 1572.98 210.242C1563.6 207.117 1554.85 205.554 1546.73 205.554C1537.98 205.554 1530.16 206.804 1523.29 209.305C1516.41 211.805 1511.41 216.492 1508.29 223.368H1445.47C1447.97 203.992 1456.72 188.054 1471.72 175.553C1488.6 161.178 1512.66 153.99 1543.91 153.99C1578.91 153.99 1605.17 159.928 1622.67 171.803C1640.79 184.304 1649.85 201.804 1649.85 224.305V309.621C1649.85 334.622 1645.17 354.31 1635.79 368.686C1627.04 382.436 1616.42 392.437 1603.92 398.687ZM1659.23 409V288.058C1659.23 263.682 1662.67 243.368 1669.54 227.118C1677.04 210.242 1687.04 196.804 1699.54 186.804C1711.42 177.428 1725.17 170.553 1740.8 166.178C1757.05 161.803 1773.61 159.615 1790.49 159.615C1791.74 159.615 1793.3 159.615 1795.17 159.615C1797.05 159.615 1798.61 159.615 1799.86 159.615V226.18H1778.3C1760.17 226.18 1746.73 230.555 1737.98 239.306C1729.23 248.056 1724.86 261.807 1724.86 280.557V409H1659.23ZM1917.05 409C1896.43 410.25 1873.93 409.938 1849.55 408.062C1825.8 406.187 1813.92 390.874 1813.92 362.123V86.4871H1847.68C1855.8 86.4871 1862.99 89.6123 1869.24 95.8625C1875.49 102.113 1878.61 109.613 1878.61 118.363V160.553H1917.05V173.678C1917.05 183.053 1913.93 190.866 1907.68 197.117C1901.43 202.742 1893.93 205.554 1885.18 205.554H1878.61V344.31C1878.61 354.935 1884.86 360.248 1897.36 360.248H1917.05V409ZM1922.68 409V120.238C1922.68 110.863 1925.8 103.05 1932.05 96.8001C1938.93 89.9248 1947.05 86.4871 1956.43 86.4871H2157.06V141.802H1988.31V211.18H2113.94V232.743C2113.94 242.118 2110.5 250.244 2103.62 257.119C2097.37 263.369 2089.56 266.494 2080.18 266.494H1988.31V409H1922.68ZM2173.94 159.615H2207.69C2216.44 159.615 2223.94 162.74 2230.19 168.99C2236.44 175.241 2239.57 182.741 2239.57 191.491V409H2173.94V159.615ZM2173.94 86.4871H2207.69C2216.44 86.4871 2223.94 89.6123 2230.19 95.8625C2236.44 102.113 2239.57 109.613 2239.57 118.363V138.052H2173.94V86.4871ZM2353.01 409C2332.38 410.25 2309.88 409.938 2285.51 408.062C2261.75 406.187 2249.88 390.874 2249.88 362.123V86.4871H2283.63C2291.76 86.4871 2298.94 89.6123 2305.19 95.8625C2311.44 102.113 2314.57 109.613 2314.57 118.363V160.553H2353.01V173.678C2353.01 183.053 2349.88 190.866 2343.63 197.117C2337.38 202.742 2329.88 205.554 2321.13 205.554H2314.57V344.31C2314.57 354.935 2320.82 360.248 2333.32 360.248H2353.01V409ZM2469.26 409C2448.64 410.25 2426.14 409.938 2401.76 408.062C2378.01 406.187 2366.13 390.874 2366.13 362.123V86.4871H2399.88C2408.01 86.4871 2415.2 89.6123 2421.45 95.8625C2427.7 102.113 2430.82 109.613 2430.82 118.363V160.553H2469.26V173.678C2469.26 183.053 2466.14 190.866 2459.89 197.117C2453.64 202.742 2446.14 205.554 2437.39 205.554H2430.82V344.31C2430.82 354.935 2437.07 360.248 2449.57 360.248H2469.26V409ZM2648.33 332.122H2695.21C2688.33 358.373 2675.21 378.374 2655.83 392.124C2636.46 406.5 2612.08 413.688 2582.7 413.688C2547.08 413.688 2519.26 402.125 2499.26 378.999C2479.26 356.498 2469.26 324.309 2469.26 282.432C2469.26 242.431 2478.95 211.18 2498.33 188.679C2518.33 165.553 2546.14 153.99 2581.77 153.99C2619.27 153.99 2648.33 165.24 2668.96 187.741C2688.96 210.867 2698.96 243.056 2698.96 284.308C2698.96 286.808 2698.96 288.995 2698.96 290.87C2698.96 292.745 2698.96 293.995 2698.96 294.62C2698.96 297.746 2698.65 299.933 2698.02 301.183H2535.83C2536.45 320.559 2541.14 334.935 2549.89 344.31C2558.02 354.31 2570.2 359.311 2586.45 359.311C2597.08 359.311 2606.14 357.123 2613.64 352.748C2615.52 352.123 2617.08 351.185 2618.33 349.935C2620.21 348.06 2622.08 346.185 2623.96 344.31C2624.58 342.435 2626.77 339.935 2630.52 336.81C2634.89 333.684 2640.83 332.122 2648.33 332.122ZM2535.83 258.994H2631.46C2630.21 242.118 2625.83 229.618 2618.33 221.493C2610.21 212.742 2598.64 208.367 2583.64 208.367C2569.89 208.367 2558.64 212.742 2549.89 221.493C2541.14 230.243 2536.45 242.743 2535.83 258.994ZM2709.27 409V288.058C2709.27 263.682 2712.71 243.368 2719.59 227.118C2727.09 210.242 2737.09 196.804 2749.59 186.804C2761.46 177.428 2775.21 170.553 2790.84 166.178C2807.09 161.803 2823.65 159.615 2840.53 159.615C2841.78 159.615 2843.34 159.615 2845.22 159.615C2847.09 159.615 2848.65 159.615 2849.9 159.615V226.18H2828.34C2810.21 226.18 2796.78 230.555 2788.03 239.306C2779.28 248.056 2774.9 261.807 2774.9 280.557V409H2709.27Z" fill="white"/>
<path d="M786.443 466.452V602.492H780.758V466.452H786.443Z" fill="white"/>
<path d="M999.749 466.452V602.492H994.064L869.702 474.423H868.991V602.492H863.306V466.452H868.991L993.353 594.521H994.064V466.452H999.749Z" fill="white"/>
<path d="M1211.21 508.964H1205.17C1204.05 504.447 1201.85 499.842 1198.6 495.148C1195.34 490.454 1191.02 486.114 1185.63 482.128C1180.24 478.143 1173.87 474.932 1166.53 472.496C1159.19 470.061 1150.87 468.843 1141.57 468.843C1129.13 468.843 1117.61 471.389 1107.01 476.482C1096.47 481.53 1087.97 488.948 1081.52 498.735C1075.12 508.477 1071.93 520.389 1071.93 534.472C1071.93 548.731 1075.12 560.732 1081.52 570.474C1087.97 580.217 1096.47 587.59 1107.01 592.594C1117.61 597.598 1129.13 600.1 1141.57 600.1C1150.87 600.1 1159.19 598.905 1166.53 596.513C1173.87 594.078 1180.24 590.889 1185.63 586.948C1191.02 582.962 1195.34 578.623 1198.6 573.929C1201.85 569.19 1204.05 564.54 1205.17 559.979H1211.21C1210.09 564.762 1207.84 569.744 1204.46 574.925C1201.08 580.062 1196.52 584.867 1190.78 589.339C1185.04 593.812 1178.08 597.443 1169.91 600.233C1161.73 602.979 1152.29 604.352 1141.57 604.352C1126.64 604.352 1113.53 601.429 1102.22 595.583C1090.91 589.738 1082.08 581.568 1075.75 571.072C1069.41 560.577 1066.24 548.377 1066.24 534.472C1066.24 520.567 1069.41 508.366 1075.75 497.871C1082.08 487.376 1090.91 479.205 1102.22 473.36C1113.53 467.515 1126.64 464.592 1141.57 464.592C1152.29 464.592 1161.73 465.965 1169.91 468.71C1178.08 471.456 1185.04 475.065 1190.78 479.538C1196.52 483.966 1201.08 488.771 1204.46 493.952C1207.84 499.089 1210.09 504.093 1211.21 508.964Z" fill="white"/>
<path d="M1417.68 534.472C1417.68 548.333 1414.51 560.511 1408.17 571.006C1401.84 581.501 1393.01 589.694 1381.7 595.583C1370.39 601.429 1357.27 604.352 1342.35 604.352C1327.37 604.352 1314.22 601.407 1302.91 595.517C1291.6 589.627 1282.77 581.435 1276.44 570.939C1270.16 560.444 1267.02 548.288 1267.02 534.472C1267.02 520.611 1270.19 508.455 1276.53 498.004C1282.86 487.509 1291.69 479.316 1303 473.426C1314.31 467.537 1327.43 464.592 1342.35 464.592C1357.27 464.592 1370.39 467.537 1381.7 473.426C1393.01 479.272 1401.84 487.442 1408.17 497.938C1414.51 508.433 1417.68 520.611 1417.68 534.472ZM1411.99 534.472C1411.99 521.452 1409.06 510.027 1403.2 500.196C1397.33 490.321 1389.16 482.637 1378.68 477.146C1368.26 471.611 1356.15 468.843 1342.35 468.843C1328.61 468.843 1316.5 471.589 1306.02 477.08C1295.59 482.527 1287.42 490.188 1281.5 500.063C1275.64 509.894 1272.71 521.364 1272.71 534.472C1272.71 547.403 1275.61 558.806 1281.41 568.681C1287.22 578.512 1295.33 586.217 1305.75 591.797C1316.23 597.333 1328.43 600.1 1342.35 600.1C1356.15 600.1 1368.29 597.355 1378.77 591.864C1389.25 586.328 1397.42 578.645 1403.29 568.814C1409.15 558.938 1412.05 547.491 1411.99 534.472Z" fill="white"/>
<path d="M1484.21 602.492V466.452H1537.51C1547.7 466.452 1556.7 468.068 1564.52 471.301C1572.39 474.534 1578.55 479.05 1582.99 484.852C1587.49 490.653 1589.74 497.45 1589.74 505.244C1589.74 512.95 1587.49 519.703 1582.99 525.504C1578.55 531.261 1572.39 535.756 1564.52 538.989C1556.7 542.177 1547.7 543.771 1537.51 543.771H1487.06V539.52H1537.51C1546.63 539.52 1554.69 538.103 1561.67 535.269C1568.66 532.435 1574.14 528.449 1578.11 523.312C1582.07 518.175 1584.06 512.153 1584.06 505.244C1584.06 498.292 1582.07 492.225 1578.11 487.044C1574.14 481.862 1568.66 477.855 1561.67 475.021C1554.69 472.142 1546.63 470.703 1537.51 470.703H1489.9V602.492H1484.21ZM1553.5 540.583L1598.27 602.492H1591.88L1547.1 540.583H1553.5Z" fill="white"/>
<path d="M1658.12 602.492V466.452H1711.42C1721.61 466.452 1730.61 468.157 1738.43 471.566C1746.3 474.976 1752.46 479.67 1756.9 485.649C1761.4 491.627 1763.65 498.513 1763.65 506.307C1763.65 514.013 1761.4 520.854 1756.9 526.833C1752.46 532.767 1746.3 537.439 1738.43 540.849C1730.61 544.214 1721.61 545.897 1711.42 545.897H1660.97V541.646H1711.42C1720.54 541.646 1728.59 540.14 1735.58 537.129C1742.57 534.117 1748.05 529.955 1752.02 524.641C1755.98 519.327 1757.97 513.215 1757.97 506.307C1757.97 499.355 1755.98 493.199 1752.02 487.841C1748.05 482.482 1742.57 478.298 1735.58 475.286C1728.59 472.231 1720.54 470.703 1711.42 470.703H1663.81V602.492H1658.12Z" fill="white"/>
<path d="M1970.19 534.472C1970.19 548.333 1967.02 560.511 1960.68 571.006C1954.34 581.501 1945.52 589.694 1934.21 595.583C1922.9 601.429 1909.78 604.352 1894.86 604.352C1879.87 604.352 1866.73 601.407 1855.42 595.517C1844.11 589.627 1835.28 581.435 1828.95 570.939C1822.67 560.444 1819.53 548.288 1819.53 534.472C1819.53 520.611 1822.7 508.455 1829.03 498.004C1835.37 487.509 1844.19 479.316 1855.51 473.426C1866.82 467.537 1879.93 464.592 1894.86 464.592C1909.78 464.592 1922.9 467.537 1934.21 473.426C1945.52 479.272 1954.34 487.442 1960.68 497.938C1967.02 508.433 1970.19 520.611 1970.19 534.472ZM1964.5 534.472C1964.5 521.452 1961.57 510.027 1955.71 500.196C1949.84 490.321 1941.67 482.637 1931.19 477.146C1920.77 471.611 1908.66 468.843 1894.86 468.843C1881.12 468.843 1869.01 471.589 1858.53 477.08C1848.1 482.527 1839.93 490.188 1834.01 500.063C1828.15 509.894 1825.21 521.364 1825.21 534.472C1825.21 547.403 1828.12 558.806 1833.92 568.681C1839.72 578.512 1847.84 586.217 1858.26 591.797C1868.74 597.333 1880.94 600.1 1894.86 600.1C1908.66 600.1 1920.8 597.355 1931.28 591.864C1941.76 586.328 1949.93 578.645 1955.79 568.814C1961.66 558.938 1964.56 547.491 1964.5 534.472Z" fill="white"/>
<path d="M2036.72 602.492V466.452H2090.02C2100.21 466.452 2109.21 468.068 2117.02 471.301C2124.9 474.534 2131.06 479.05 2135.5 484.852C2140 490.653 2142.25 497.45 2142.25 505.244C2142.25 512.95 2140 519.703 2135.5 525.504C2131.06 531.261 2124.9 535.756 2117.02 538.989C2109.21 542.177 2100.21 543.771 2090.02 543.771H2039.56V539.52H2090.02C2099.14 539.52 2107.19 538.103 2114.18 535.269C2121.17 532.435 2126.65 528.449 2130.62 523.312C2134.58 518.175 2136.57 512.153 2136.57 505.244C2136.57 498.292 2134.58 492.225 2130.62 487.044C2126.65 481.862 2121.17 477.855 2114.18 475.021C2107.19 472.142 2099.14 470.703 2090.02 470.703H2042.41V602.492H2036.72ZM2106.01 540.583L2150.78 602.492H2144.38L2099.61 540.583H2106.01Z" fill="white"/>
<path d="M2196.42 602.492H2190.38L2255.4 466.452H2263.22L2328.24 602.492H2322.2L2259.67 471.766H2258.95L2196.42 602.492ZM2217.03 552.274H2301.59V556.525H2217.03V552.274Z" fill="white"/>
<path d="M2350.39 470.703V466.452H2473.33V470.703H2414.7V602.492H2409.01V470.703H2350.39Z" fill="white"/>
<path d="M2536.95 602.492V466.452H2633.96V470.703H2542.64V532.346H2628.63V536.597H2542.64V598.24H2636.44V602.492H2536.95Z" fill="white"/>
<path d="M2750.66 602.492H2703.05V466.452H2755.28C2772.04 466.452 2786.37 469.153 2798.27 474.556C2810.23 479.914 2819.38 487.619 2825.72 497.672C2832.12 507.724 2835.28 519.814 2835.23 533.94C2835.17 548.421 2831.79 560.776 2825.1 571.006C2818.47 581.191 2808.84 588.985 2796.23 594.388C2783.67 599.79 2768.48 602.492 2750.66 602.492ZM2708.73 598.24H2750.66C2767.48 598.24 2781.78 595.694 2793.56 590.601C2805.35 585.464 2814.29 578.091 2820.39 568.482C2826.55 558.872 2829.6 547.358 2829.54 533.94C2829.48 520.699 2826.52 509.363 2820.66 499.93C2814.85 490.498 2806.44 483.28 2795.43 478.276C2784.41 473.227 2771.03 470.703 2755.28 470.703H2708.73V598.24Z" fill="white"/>
<defs>
<filter id="filter0_i_2075_6355" x="174.32" y="84.0859" width="319.238" height="455.273" filterUnits="userSpaceOnUse" color-interpolation-filters="sRGB">
<feFlood flood-opacity="0" result="BackgroundImageFix"/>
<feBlend mode="normal" in="SourceGraphic" in2="BackgroundImageFix" result="shape"/>
<feColorMatrix in="SourceAlpha" type="matrix" values="0 0 0 0 0 0 0 0 0 0 0 0 0 0 0 0 0 0 127 0" result="hardAlpha"/>
<feOffset dy="4.78516"/>
<feGaussianBlur stdDeviation="1.36719"/>
<feComposite in2="hardAlpha" operator="arithmetic" k2="-1" k3="1"/>
<feColorMatrix type="matrix" values="0 0 0 0 0.109804 0 0 0 0 0.0666667 0 0 0 0 0.0313726 0 0 0 1 0"/>
<feBlend mode="normal" in2="shape" result="effect1_innerShadow_2075_6355"/>
</filter>
<radialGradient id="paint0_radial_2075_6355" cx="0" cy="0" r="1" gradientUnits="userSpaceOnUse" gradientTransform="translate(338.379 315.821) rotate(90) scale(351.367 376.058)">
<stop stop-color="#6A4322"/>
<stop offset="1" stop-color="#090401"/>
</radialGradient>
<radialGradient id="paint1_radial_2075_6355" cx="0" cy="0" r="1" gradientUnits="userSpaceOnUse" gradientTransform="translate(334.281 310.356) rotate(90) scale(260.449 183.731)">
<stop stop-color="#B59E81"/>
<stop offset="1" stop-color="#D7CCBE"/>
</radialGradient>
</defs>
</svg>
