<svg width="2077" height="605" viewBox="0 0 2077 605" fill="none" xmlns="http://www.w3.org/2000/svg">
<path d="M0 308.684H65.6276C68.1277 327.434 75.3155 340.56 87.191 348.06C99.6915 356.81 116.88 361.186 138.756 361.186C158.131 361.186 172.819 357.748 182.82 350.873C192.82 343.997 197.82 333.997 197.82 320.871C197.82 300.871 169.694 284.62 113.442 272.12L111.567 271.182C111.567 271.182 109.067 270.557 104.067 269.307C72.1904 262.432 50.9395 255.244 40.3141 247.744C27.8136 240.868 19.0633 230.868 14.0631 217.742C7.81281 206.492 4.68769 192.116 4.68769 174.616C4.68769 143.989 15.3131 119.926 36.564 102.425C57.8148 85.5496 88.7535 77.1118 129.38 77.1118C167.507 77.1118 196.883 85.8621 217.509 103.363C238.76 122.739 250.01 148.052 251.26 179.303H213.759C199.383 179.303 189.07 172.741 182.82 159.615C179.695 153.365 175.319 148.052 169.694 143.677C158.444 135.552 143.131 131.489 123.755 131.489C105.004 131.489 91.5662 134.927 83.4408 141.802C74.0655 148.677 69.3778 158.365 69.3778 170.866C69.3778 187.741 87.5035 200.242 123.755 208.367C134.38 211.492 142.193 213.367 147.193 213.992C158.444 217.742 168.132 220.868 176.257 223.368C185.007 225.243 191.883 226.805 196.883 228.055C205.633 231.805 214.384 235.556 223.134 239.306C235.634 246.806 245.322 256.494 252.198 268.369C259.073 281.495 262.51 295.87 262.51 311.496C262.51 345.247 251.26 371.499 228.759 390.249C206.258 407.75 174.382 416.5 133.13 416.5C90.6286 416.5 58.7523 407.437 37.5015 389.312C14.3756 371.186 1.87507 344.31 0 308.684ZM493.145 409H428.455V262.744V249.619C428.455 234.618 423.767 223.68 414.392 216.805C405.641 209.93 395.641 206.492 384.39 206.492C373.14 206.492 363.139 209.93 354.389 216.805C345.639 223.68 341.264 234.618 341.264 249.619V409H275.636V262.744C275.636 220.242 286.574 191.804 308.45 177.428C330.951 163.053 355.639 155.24 382.515 153.99C396.891 153.99 410.954 155.552 424.704 158.678C438.455 161.803 450.955 168.053 462.206 177.428C471.581 169.303 482.519 163.678 495.02 160.553C508.145 156.802 521.583 154.615 535.334 153.99C562.835 153.99 588.148 161.178 611.274 175.553C634.4 189.929 645.963 218.992 645.963 262.744V409H613.149C603.774 409 595.961 406.187 589.711 400.562C584.086 394.312 581.273 386.499 581.273 377.124V249.619C581.273 234.618 576.585 223.68 567.21 216.805C558.46 209.93 548.459 206.492 537.209 206.492C525.958 206.492 515.646 209.93 506.27 216.805C497.52 223.68 493.145 234.618 493.145 249.619V262.744V409ZM808.157 283.37C799.407 287.745 787.219 291.808 771.593 295.558C757.218 298.683 750.03 300.246 750.03 300.246C738.779 303.371 730.654 307.433 725.654 312.434C721.279 319.309 719.091 326.184 719.091 333.059C719.091 342.435 721.904 349.935 727.529 355.56C733.154 360.561 741.28 363.061 751.905 363.061C769.406 363.061 783.156 358.06 793.157 348.06C803.157 338.06 808.157 324.309 808.157 306.808V283.37ZM823.158 398.687C810.032 405.562 795.969 409.625 780.969 410.875C766.593 412.75 753.78 413.688 742.53 413.688C720.029 413.688 700.34 407.75 683.465 395.874C666.589 383.374 658.151 363.061 658.151 334.935C658.151 308.684 665.652 289.933 680.652 278.682C696.278 267.432 715.966 259.932 739.717 256.181C742.842 256.181 746.592 255.869 750.967 255.244C755.343 253.994 760.343 253.056 765.968 252.431C793.469 248.681 807.22 240.556 807.22 228.055C807.22 218.68 802.22 212.742 792.219 210.242C782.844 207.117 774.093 205.554 765.968 205.554C757.218 205.554 749.405 206.804 742.53 209.305C735.654 211.805 730.654 216.492 727.529 223.368H664.714C667.214 203.992 675.964 188.054 690.965 175.553C707.841 161.178 731.904 153.99 763.155 153.99C798.157 153.99 824.408 159.928 841.909 171.803C860.034 184.304 869.097 201.804 869.097 224.305V309.621C869.097 334.622 864.409 354.31 855.034 368.686C846.284 382.436 835.658 392.437 823.158 398.687ZM878.473 409V288.058C878.473 263.682 881.91 243.368 888.785 227.118C896.286 210.242 906.286 196.804 918.787 186.804C930.662 177.428 944.413 170.553 960.038 166.178C976.289 161.803 992.852 159.615 1009.73 159.615C1010.98 159.615 1012.54 159.615 1014.42 159.615C1016.29 159.615 1017.85 159.615 1019.1 159.615V226.18H997.54C979.414 226.18 965.976 230.555 957.226 239.306C948.475 248.056 944.1 261.807 944.1 280.557V409H878.473ZM1136.3 409C1115.67 410.25 1093.17 409.938 1068.79 408.062C1045.04 406.187 1033.17 390.874 1033.17 362.123V86.4871H1066.92C1075.04 86.4871 1082.23 89.6123 1088.48 95.8625C1094.73 102.113 1097.86 109.613 1097.86 118.363V160.553H1136.3V173.678C1136.3 183.053 1133.17 190.866 1126.92 197.117C1120.67 202.742 1113.17 205.554 1104.42 205.554H1097.86V344.31C1097.86 354.935 1104.11 360.248 1116.61 360.248H1136.3V409ZM1141.92 409V120.238C1141.92 110.863 1145.05 103.05 1151.3 96.8001C1158.17 89.9248 1166.3 86.4871 1175.67 86.4871H1376.3V141.802H1207.55V211.18H1333.18V232.743C1333.18 242.118 1329.74 250.244 1322.87 257.119C1316.61 263.369 1308.8 266.494 1299.43 266.494H1207.55V409H1141.92ZM1393.18 159.615H1426.93C1435.68 159.615 1443.18 162.74 1449.43 168.99C1455.68 175.241 1458.81 182.741 1458.81 191.491V409H1393.18V159.615ZM1393.18 86.4871H1426.93C1435.68 86.4871 1443.18 89.6123 1449.43 95.8625C1455.68 102.113 1458.81 109.613 1458.81 118.363V138.052H1393.18V86.4871ZM1572.25 409C1551.62 410.25 1529.12 409.938 1504.75 408.062C1481 406.187 1469.12 390.874 1469.12 362.123V86.4871H1502.87C1511 86.4871 1518.19 89.6123 1524.44 95.8625C1530.69 102.113 1533.81 109.613 1533.81 118.363V160.553H1572.25V173.678C1572.25 183.053 1569.13 190.866 1562.87 197.117C1556.62 202.742 1549.12 205.554 1540.37 205.554H1533.81V344.31C1533.81 354.935 1540.06 360.248 1552.56 360.248H1572.25V409ZM1688.5 409C1667.88 410.25 1645.38 409.938 1621 408.062C1597.25 406.187 1585.38 390.874 1585.38 362.123V86.4871H1619.13C1627.25 86.4871 1634.44 89.6123 1640.69 95.8625C1646.94 102.113 1650.07 109.613 1650.07 118.363V160.553H1688.5V173.678C1688.5 183.053 1685.38 190.866 1679.13 197.117C1672.88 202.742 1665.38 205.554 1656.63 205.554H1650.07V344.31C1650.07 354.935 1656.32 360.248 1668.82 360.248H1688.5V409ZM1867.57 332.122H1914.45C1907.58 358.373 1894.45 378.374 1875.07 392.124C1855.7 406.5 1831.32 413.688 1801.95 413.688C1766.32 413.688 1738.51 402.125 1718.51 378.999C1698.51 356.498 1688.5 324.309 1688.5 282.432C1688.5 242.431 1698.19 211.18 1717.57 188.679C1737.57 165.553 1765.38 153.99 1801.01 153.99C1838.51 153.99 1867.57 165.24 1888.2 187.741C1908.2 210.867 1918.2 243.056 1918.2 284.308C1918.2 286.808 1918.2 288.995 1918.2 290.87C1918.2 292.745 1918.2 293.995 1918.2 294.62C1918.2 297.746 1917.89 299.933 1917.26 301.183H1755.07C1755.69 320.559 1760.38 334.935 1769.13 344.31C1777.26 354.31 1789.45 359.311 1805.7 359.311C1816.32 359.311 1825.39 357.123 1832.89 352.748C1834.76 352.123 1836.32 351.185 1837.57 349.935C1839.45 348.06 1841.32 346.185 1843.2 344.31C1843.82 342.435 1846.01 339.935 1849.76 336.81C1854.14 333.684 1860.07 332.122 1867.57 332.122ZM1755.07 258.994H1850.7C1849.45 242.118 1845.07 229.618 1837.57 221.493C1829.45 212.742 1817.88 208.367 1802.88 208.367C1789.13 208.367 1777.88 212.742 1769.13 221.493C1760.38 230.243 1755.69 242.743 1755.07 258.994ZM1928.51 409V288.058C1928.51 263.682 1931.95 243.368 1938.83 227.118C1946.33 210.242 1956.33 196.804 1968.83 186.804C1980.7 177.428 1994.45 170.553 2010.08 166.178C2026.33 161.803 2042.89 159.615 2059.77 159.615C2061.02 159.615 2062.58 159.615 2064.46 159.615C2066.33 159.615 2067.89 159.615 2069.15 159.615V226.18H2047.58C2029.46 226.18 2016.02 230.555 2007.27 239.306C1998.52 248.056 1994.14 261.807 1994.14 280.557V409H1928.51Z" fill="white"/>
<path d="M5.68512 466.452V602.492H0V466.452H5.68512Z" fill="white"/>
<path d="M218.991 466.452V602.492H213.306L88.9437 474.423H88.2331V602.492H82.5479V466.452H88.2331L212.595 594.521H213.306V466.452H218.991Z" fill="white"/>
<path d="M430.453 508.964H424.413C423.288 504.447 421.097 499.842 417.839 495.148C414.582 490.454 410.259 486.114 404.87 482.128C399.481 478.143 393.115 474.932 385.772 472.496C378.429 470.061 370.108 468.843 360.811 468.843C348.374 468.843 336.856 471.389 326.256 476.482C315.715 481.53 307.217 488.948 300.762 498.735C294.366 508.477 291.168 520.389 291.168 534.472C291.168 548.731 294.366 560.732 300.762 570.474C307.217 580.217 315.715 587.59 326.256 592.594C336.856 597.598 348.374 600.1 360.811 600.1C370.108 600.1 378.429 598.905 385.772 596.513C393.115 594.078 399.481 590.889 404.87 586.948C410.259 582.962 414.582 578.623 417.839 573.929C421.097 569.19 423.288 564.54 424.413 559.979H430.453C429.328 564.762 427.078 569.744 423.702 574.925C420.327 580.062 415.767 584.867 410.022 589.339C404.278 593.812 397.32 597.443 389.147 600.233C380.975 602.979 371.529 604.352 360.811 604.352C345.887 604.352 332.77 601.429 321.459 595.583C310.148 589.738 301.324 581.568 294.988 571.072C288.651 560.577 285.483 548.377 285.483 534.472C285.483 520.567 288.651 508.366 294.988 497.871C301.324 487.376 310.148 479.205 321.459 473.36C332.77 467.515 345.887 464.592 360.811 464.592C371.529 464.592 380.975 465.965 389.147 468.71C397.32 471.456 404.278 475.065 410.022 479.538C415.767 483.966 420.327 488.771 423.702 493.952C427.078 499.089 429.328 504.093 430.453 508.964Z" fill="white"/>
<path d="M636.919 534.472C636.919 548.333 633.751 560.511 627.414 571.006C621.078 581.501 612.254 589.694 600.943 595.583C589.632 601.429 576.515 604.352 561.591 604.352C546.609 604.352 533.462 601.407 522.151 595.517C510.84 589.627 502.016 581.435 495.679 570.939C489.402 560.444 486.263 548.288 486.263 534.472C486.263 520.611 489.432 508.455 495.768 498.004C502.105 487.509 510.929 479.316 522.24 473.426C533.551 467.537 546.668 464.592 561.591 464.592C576.515 464.592 589.632 467.537 600.943 473.426C612.254 479.272 621.078 487.442 627.414 497.938C633.751 508.433 636.919 520.611 636.919 534.472ZM631.234 534.472C631.234 521.452 628.303 510.027 622.44 500.196C616.577 490.321 608.405 482.637 597.923 477.146C587.5 471.611 575.39 468.843 561.591 468.843C547.852 468.843 535.742 471.589 525.26 477.08C514.837 482.527 506.665 490.188 500.743 500.063C494.88 509.894 491.949 521.364 491.949 534.472C491.949 547.403 494.85 558.806 500.654 568.681C506.457 578.512 514.571 586.217 524.993 591.797C535.475 597.333 547.675 600.1 561.591 600.1C575.39 600.1 587.53 597.355 598.012 591.864C608.494 586.328 616.666 578.645 622.529 568.814C628.391 558.938 631.293 547.491 631.234 534.472Z" fill="white"/>
<path d="M703.455 602.492V466.452H756.753C766.939 466.452 775.941 468.068 783.758 471.301C791.634 474.534 797.793 479.05 802.234 484.852C806.735 490.653 808.986 497.45 808.986 505.244C808.986 512.95 806.735 519.703 802.234 525.504C797.793 531.261 791.634 535.756 783.758 538.989C775.941 542.177 766.939 543.771 756.753 543.771H706.298V539.52H756.753C765.873 539.52 773.927 538.103 780.915 535.269C787.903 532.435 793.381 528.449 797.349 523.312C801.317 518.175 803.3 512.153 803.3 505.244C803.3 498.292 801.317 492.225 797.349 487.044C793.381 481.862 787.903 477.855 780.915 475.021C773.927 472.142 765.873 470.703 756.753 470.703H709.141V602.492H703.455ZM772.743 540.583L817.513 602.492H811.117L766.347 540.583H772.743Z" fill="white"/>
<path d="M877.365 602.492V466.452H930.663C940.849 466.452 949.85 468.157 957.667 471.566C965.544 474.976 971.703 479.67 976.144 485.649C980.645 491.627 982.895 498.513 982.895 506.307C982.895 514.013 980.645 520.854 976.144 526.833C971.703 532.767 965.544 537.439 957.667 540.849C949.85 544.214 940.849 545.897 930.663 545.897H880.208V541.646H930.663C939.783 541.646 947.837 540.14 954.825 537.129C961.813 534.117 967.291 529.955 971.258 524.641C975.226 519.327 977.21 513.215 977.21 506.307C977.21 499.355 975.226 493.199 971.258 487.841C967.291 482.482 961.813 478.298 954.825 475.286C947.837 472.231 939.783 470.703 930.663 470.703H883.05V602.492H877.365Z" fill="white"/>
<path d="M1189.43 534.472C1189.43 548.333 1186.26 560.511 1179.92 571.006C1173.59 581.501 1164.76 589.694 1153.45 595.583C1142.14 601.429 1129.02 604.352 1114.1 604.352C1099.12 604.352 1085.97 601.407 1074.66 595.517C1063.35 589.627 1054.52 581.435 1048.19 570.939C1041.91 560.444 1038.77 548.288 1038.77 534.472C1038.77 520.611 1041.94 508.455 1048.28 498.004C1054.61 487.509 1063.44 479.316 1074.75 473.426C1086.06 467.537 1099.18 464.592 1114.1 464.592C1129.02 464.592 1142.14 467.537 1153.45 473.426C1164.76 479.272 1173.59 487.442 1179.92 497.938C1186.26 508.433 1189.43 520.611 1189.43 534.472ZM1183.74 534.472C1183.74 521.452 1180.81 510.027 1174.95 500.196C1169.09 490.321 1160.91 482.637 1150.43 477.146C1140.01 471.611 1127.9 468.843 1114.1 468.843C1100.36 468.843 1088.25 471.589 1077.77 477.08C1067.35 482.527 1059.17 490.188 1053.25 500.063C1047.39 509.894 1044.46 521.364 1044.46 534.472C1044.46 547.403 1047.36 558.806 1053.16 568.681C1058.97 578.512 1067.08 586.217 1077.5 591.797C1087.98 597.333 1100.18 600.1 1114.1 600.1C1127.9 600.1 1140.04 597.355 1150.52 591.864C1161 586.328 1169.17 578.645 1175.04 568.814C1180.9 558.938 1183.8 547.491 1183.74 534.472Z" fill="white"/>
<path d="M1255.96 602.492V466.452H1309.26C1319.45 466.452 1328.45 468.068 1336.27 471.301C1344.14 474.534 1350.3 479.05 1354.74 484.852C1359.24 490.653 1361.49 497.45 1361.49 505.244C1361.49 512.95 1359.24 519.703 1354.74 525.504C1350.3 531.261 1344.14 535.756 1336.27 538.989C1328.45 542.177 1319.45 543.771 1309.26 543.771H1258.81V539.52H1309.26C1318.38 539.52 1326.44 538.103 1333.42 535.269C1340.41 532.435 1345.89 528.449 1349.86 523.312C1353.82 518.175 1355.81 512.153 1355.81 505.244C1355.81 498.292 1353.82 492.225 1349.86 487.044C1345.89 481.862 1340.41 477.855 1333.42 475.021C1326.44 472.142 1318.38 470.703 1309.26 470.703H1261.65V602.492H1255.96ZM1325.25 540.583L1370.02 602.492H1363.63L1318.86 540.583H1325.25Z" fill="white"/>
<path d="M1415.66 602.492H1409.62L1474.64 466.452H1482.46L1547.48 602.492H1541.44L1478.91 471.766H1478.2L1415.66 602.492ZM1436.27 552.274H1520.84V556.525H1436.27V552.274Z" fill="white"/>
<path d="M1569.63 470.703V466.452H1692.57V470.703H1633.94V602.492H1628.26V470.703H1569.63Z" fill="white"/>
<path d="M1756.2 602.492V466.452H1853.2V470.703H1761.88V532.346H1847.87V536.597H1761.88V598.24H1855.69V602.492H1756.2Z" fill="white"/>
<path d="M1969.9 602.492H1922.29V466.452H1974.52C1991.28 466.452 2005.61 469.153 2017.51 474.556C2029.48 479.914 2038.63 487.619 2044.96 497.672C2051.36 507.724 2054.53 519.814 2054.47 533.94C2054.41 548.421 2051.03 560.776 2044.34 571.006C2037.71 581.191 2028.08 588.985 2015.47 594.388C2002.92 599.79 1987.73 602.492 1969.9 602.492ZM1927.97 598.24H1969.9C1986.72 598.24 2001.02 595.694 2012.81 590.601C2024.59 585.464 2033.53 578.091 2039.63 568.482C2045.79 558.872 2048.84 547.358 2048.78 533.94C2048.72 520.699 2045.76 509.363 2039.9 499.93C2034.1 490.498 2025.69 483.28 2014.67 478.276C2003.66 473.227 1990.27 470.703 1974.52 470.703H1927.97V598.24Z" fill="white"/>
</svg>
