<svg width="2111" height="592" viewBox="0 0 2111 592" fill="none" xmlns="http://www.w3.org/2000/svg">
<path d="M20.5703 254.684H86.1979C88.698 273.434 95.8858 286.56 107.761 294.06C120.262 302.81 137.45 307.186 159.326 307.186C178.702 307.186 193.39 303.748 203.39 296.873C213.39 289.997 218.391 279.997 218.391 266.871C218.391 246.871 190.265 230.62 134.012 218.12L132.137 217.182C132.137 217.182 129.637 216.557 124.637 215.307C92.7607 208.432 71.5098 201.244 60.8844 193.744C48.3839 186.868 39.6336 176.868 34.6334 163.742C28.3831 152.492 25.258 138.116 25.258 120.616C25.258 89.9894 35.8834 65.926 57.1343 48.4253C78.3851 31.5496 109.324 23.1118 149.95 23.1118C188.077 23.1118 217.453 31.8621 238.079 49.3628C259.33 68.7386 270.58 94.0521 271.83 125.303H234.329C219.953 125.303 209.64 118.741 203.39 105.615C200.265 99.3648 195.89 94.0521 190.265 89.6769C179.014 81.5516 163.701 77.4889 144.325 77.4889C125.574 77.4889 112.136 80.9266 104.011 87.8018C94.6358 94.6771 89.9481 104.365 89.9481 116.866C89.9481 133.741 108.074 146.242 144.325 154.367C154.951 157.492 162.763 159.367 167.764 159.992C179.014 163.742 188.702 166.868 196.827 169.368C205.578 171.243 212.453 172.805 217.453 174.055C226.204 177.805 234.954 181.556 243.704 185.306C256.205 192.806 265.893 202.494 272.768 214.369C279.643 227.495 283.081 241.87 283.081 257.496C283.081 291.247 271.83 317.499 249.329 336.249C226.829 353.75 194.952 362.5 153.701 362.5C111.199 362.5 79.3227 353.437 58.0718 335.312C34.9459 317.186 22.4454 290.31 20.5703 254.684ZM513.715 355H449.025V208.744V195.619C449.025 180.618 444.337 169.68 434.962 162.805C426.211 155.93 416.211 152.492 404.961 152.492C393.71 152.492 383.71 155.93 374.959 162.805C366.209 169.68 361.834 180.618 361.834 195.619V355H296.206V208.744C296.206 166.242 307.144 137.804 329.02 123.428C351.521 109.053 376.209 101.24 403.086 99.9898C417.461 99.9898 431.524 101.552 445.275 104.678C459.025 107.803 471.526 114.053 482.776 123.428C492.152 115.303 503.09 109.678 515.59 106.553C528.716 102.802 542.154 100.615 555.904 99.9898C583.405 99.9898 608.719 107.178 631.845 121.553C654.971 135.929 666.534 164.992 666.534 208.744V355H633.72C624.344 355 616.532 352.187 610.281 346.562C604.656 340.312 601.843 332.499 601.843 323.124V195.619C601.843 180.618 597.156 169.68 587.78 162.805C579.03 155.93 569.03 152.492 557.779 152.492C546.529 152.492 536.216 155.93 526.84 162.805C518.09 169.68 513.715 180.618 513.715 195.619V208.744V355ZM828.728 229.37C819.977 233.745 807.789 237.808 792.164 241.558C777.788 244.683 770.6 246.246 770.6 246.246C759.35 249.371 751.224 253.433 746.224 258.434C741.849 265.309 739.662 272.184 739.662 279.059C739.662 288.435 742.474 295.935 748.099 301.56C753.725 306.561 761.85 309.061 772.475 309.061C789.976 309.061 803.727 304.06 813.727 294.06C823.727 284.06 828.728 270.309 828.728 252.808V229.37ZM843.728 344.687C830.603 351.562 816.54 355.625 801.539 356.875C787.163 358.75 774.35 359.688 763.1 359.688C740.599 359.688 720.911 353.75 704.035 341.874C687.159 329.374 678.722 309.061 678.722 280.935C678.722 254.684 686.222 235.933 701.222 224.682C716.848 213.432 736.536 205.932 760.287 202.181C763.412 202.181 767.163 201.869 771.538 201.244C775.913 199.994 780.913 199.056 786.538 198.431C814.039 194.681 827.79 186.556 827.79 174.055C827.79 164.68 822.79 158.742 812.789 156.242C803.414 153.117 794.664 151.554 786.538 151.554C777.788 151.554 769.975 152.804 763.1 155.305C756.225 157.805 751.224 162.492 748.099 169.368H685.284C687.784 149.992 696.535 134.054 711.535 121.553C728.411 107.178 752.475 99.9898 783.726 99.9898C818.727 99.9898 844.978 105.928 862.479 117.803C880.605 130.304 889.667 147.804 889.667 170.305V255.621C889.667 280.622 884.98 300.31 875.604 314.686C866.854 328.436 856.229 338.437 843.728 344.687ZM899.043 355V234.058C899.043 209.682 902.48 189.368 909.356 173.118C916.856 156.242 926.856 142.804 939.357 132.804C951.232 123.428 964.983 116.553 980.609 112.178C996.859 107.803 1013.42 105.615 1030.3 105.615C1031.55 105.615 1033.11 105.615 1034.99 105.615C1036.86 105.615 1038.42 105.615 1039.67 105.615V172.18H1018.11C999.984 172.18 986.546 176.555 977.796 185.306C969.046 194.056 964.67 207.807 964.67 226.557V355H899.043ZM1156.87 355C1136.24 356.25 1113.74 355.938 1089.36 354.062C1065.61 352.187 1053.74 336.874 1053.74 308.123V32.4871H1087.49C1095.61 32.4871 1102.8 35.6123 1109.05 41.8625C1115.3 48.1128 1118.43 55.6131 1118.43 64.3634V106.553H1156.87V119.678C1156.87 129.053 1153.74 136.866 1147.49 143.117C1141.24 148.742 1133.74 151.554 1124.99 151.554H1118.43V290.31C1118.43 300.935 1124.68 306.248 1137.18 306.248H1156.87V355ZM1162.49 355V66.2385C1162.49 56.8631 1165.62 49.0503 1171.87 42.8001C1178.74 35.9248 1186.87 32.4871 1196.24 32.4871H1396.88V87.8018H1228.12V157.18H1353.75V178.743C1353.75 188.118 1350.31 196.244 1343.44 203.119C1337.19 209.369 1329.37 212.494 1320 212.494H1228.12V355H1162.49ZM1413.75 105.615H1447.5C1456.25 105.615 1463.75 108.74 1470 114.99C1476.25 121.241 1479.38 128.741 1479.38 137.491V355H1413.75V105.615ZM1413.75 32.4871H1447.5C1456.25 32.4871 1463.75 35.6123 1470 41.8625C1476.25 48.1128 1479.38 55.6131 1479.38 64.3634V84.0517H1413.75V32.4871ZM1592.82 355C1572.19 356.25 1549.69 355.938 1525.32 354.062C1501.57 352.187 1489.69 336.874 1489.69 308.123V32.4871H1523.44C1531.57 32.4871 1538.76 35.6123 1545.01 41.8625C1551.26 48.1128 1554.38 55.6131 1554.38 64.3634V106.553H1592.82V119.678C1592.82 129.053 1589.7 136.866 1583.45 143.117C1577.19 148.742 1569.69 151.554 1560.94 151.554H1554.38V290.31C1554.38 300.935 1560.63 306.248 1573.13 306.248H1592.82V355ZM1709.08 355C1688.45 356.25 1665.95 355.938 1641.57 354.062C1617.82 352.187 1605.95 336.874 1605.95 308.123V32.4871H1639.7C1647.82 32.4871 1655.01 35.6123 1661.26 41.8625C1667.51 48.1128 1670.64 55.6131 1670.64 64.3634V106.553H1709.08V119.678C1709.08 129.053 1705.95 136.866 1699.7 143.117C1693.45 148.742 1685.95 151.554 1677.2 151.554H1670.64V290.31C1670.64 300.935 1676.89 306.248 1689.39 306.248H1709.08V355ZM1888.14 278.122H1935.02C1928.15 304.373 1915.02 324.374 1895.65 338.124C1876.27 352.5 1851.89 359.688 1822.52 359.688C1786.89 359.688 1759.08 348.125 1739.08 324.999C1719.08 302.498 1709.08 270.309 1709.08 228.432C1709.08 188.431 1718.76 157.18 1738.14 134.679C1758.14 111.553 1785.95 99.9898 1821.58 99.9898C1859.08 99.9898 1888.14 111.24 1908.77 133.741C1928.77 156.867 1938.77 189.056 1938.77 230.308C1938.77 232.808 1938.77 234.995 1938.77 236.87C1938.77 238.745 1938.77 239.995 1938.77 240.62C1938.77 243.746 1938.46 245.933 1937.83 247.183H1775.64C1776.27 266.559 1780.95 280.935 1789.7 290.31C1797.83 300.31 1810.02 305.311 1826.27 305.311C1836.89 305.311 1845.96 303.123 1853.46 298.748C1855.33 298.123 1856.89 297.185 1858.14 295.935C1860.02 294.06 1861.89 292.185 1863.77 290.31C1864.39 288.435 1866.58 285.935 1870.33 282.81C1874.71 279.684 1880.64 278.122 1888.14 278.122ZM1775.64 204.994H1871.27C1870.02 188.118 1865.64 175.618 1858.14 167.493C1850.02 158.742 1838.46 154.367 1823.45 154.367C1809.7 154.367 1798.45 158.742 1789.7 167.493C1780.95 176.243 1776.27 188.743 1775.64 204.994ZM1949.08 355V234.058C1949.08 209.682 1952.52 189.368 1959.4 173.118C1966.9 156.242 1976.9 142.804 1989.4 132.804C2001.27 123.428 2015.02 116.553 2030.65 112.178C2046.9 107.803 2063.46 105.615 2080.34 105.615C2081.59 105.615 2083.15 105.615 2085.03 105.615C2086.9 105.615 2088.47 105.615 2089.72 105.615V172.18H2068.15C2050.03 172.18 2036.59 176.555 2027.84 185.306C2019.09 194.056 2014.71 207.807 2014.71 226.557V355H1949.08Z" fill="#8A7C6A"/>
</svg>
