<svg width="1612" height="403" viewBox="0 0 1612 403" fill="none" xmlns="http://www.w3.org/2000/svg">
<path opacity="0.75" d="M0 403H403V0H131.132C58.71 0 0 58.71 0 131.132V403Z" fill="#1E1918"/>
<rect opacity="0.75" width="403" height="403" transform="matrix(1 0 0 -1 403 403)" fill="#2F2929"/>
<rect opacity="0.75" width="403" height="403" transform="matrix(1 0 0 -1 806 403)" fill="#937B65"/>
<rect opacity="0.75" width="403" height="403" transform="matrix(1 0 0 -1 1209 403)" fill="#CBC0BE"/>
<g style="mix-blend-mode:color-dodge">
<path d="M194.049 111.135C193.548 106.084 191.399 102.161 187.6 99.3641C183.802 96.5675 178.647 95.1692 172.135 95.1692C167.711 95.1692 163.975 95.7953 160.928 97.0475C157.881 98.258 155.544 99.9485 153.916 102.119C152.33 104.289 151.536 106.752 151.536 109.507C151.453 111.803 151.933 113.806 152.976 115.518C154.062 117.229 155.544 118.711 157.422 119.963C159.3 121.174 161.471 122.238 163.933 123.156C166.396 124.033 169.026 124.784 171.822 125.41L183.343 128.165C188.936 129.417 194.07 131.087 198.745 133.174C203.42 135.261 207.469 137.828 210.892 140.875C214.314 143.922 216.965 147.512 218.843 151.644C220.763 155.777 221.744 160.514 221.786 165.857C221.744 173.704 219.741 180.508 215.775 186.268C211.852 191.987 206.175 196.432 198.745 199.604C191.357 202.735 182.445 204.3 172.01 204.3C161.659 204.3 152.643 202.714 144.962 199.542C137.324 196.369 131.355 191.674 127.056 185.454C122.798 179.193 120.565 171.45 120.356 162.226H146.59C146.882 166.525 148.114 170.115 150.284 172.995C152.496 175.833 155.439 177.983 159.112 179.444C162.827 180.863 167.022 181.572 171.697 181.572C176.289 181.572 180.275 180.904 183.656 179.569C187.079 178.233 189.729 176.376 191.607 173.996C193.486 171.617 194.425 168.883 194.425 165.794C194.425 162.914 193.569 160.493 191.858 158.531C190.188 156.57 187.726 154.9 184.47 153.523C181.256 152.145 177.311 150.893 172.636 149.766L158.674 146.26C147.863 143.63 139.327 139.519 133.066 133.925C126.805 128.332 123.695 120.798 123.737 111.323C123.695 103.559 125.762 96.7762 129.936 90.9742C134.151 85.1723 139.933 80.6434 147.279 77.3876C154.625 74.1319 162.973 72.504 172.323 72.504C181.84 72.504 190.147 74.1319 197.242 77.3876C204.38 80.6434 209.932 85.1723 213.897 90.9742C217.862 96.7762 219.908 103.496 220.033 111.135H194.049ZM239.521 202.484V106.314H264.941V123.281H266.068C268.071 117.647 271.41 113.201 276.085 109.945C280.76 106.69 286.354 105.062 292.865 105.062C299.46 105.062 305.074 106.71 309.707 110.008C314.341 113.264 317.429 117.688 318.974 123.281H319.976C321.937 117.772 325.485 113.368 330.619 110.071C335.795 106.731 341.91 105.062 348.965 105.062C357.939 105.062 365.222 107.921 370.816 113.639C376.451 119.316 379.268 127.372 379.268 137.807V202.484H352.659V143.067C352.659 137.724 351.239 133.717 348.401 131.045C345.563 128.374 342.015 127.038 337.757 127.038C332.915 127.038 329.138 128.583 326.425 131.671C323.711 134.718 322.355 138.746 322.355 143.755V202.484H296.497V142.503C296.497 137.786 295.14 134.03 292.427 131.233C289.755 128.436 286.228 127.038 281.846 127.038C278.882 127.038 276.211 127.789 273.831 129.292C271.494 130.753 269.636 132.819 268.259 135.491C266.882 138.12 266.193 141.209 266.193 144.757V202.484H239.521ZM427.76 204.3C421.625 204.3 416.157 203.236 411.356 201.107C406.556 198.936 402.758 195.743 399.961 191.527C397.206 187.27 395.829 181.969 395.829 175.624C395.829 170.281 396.81 165.794 398.772 162.163C400.733 158.531 403.405 155.61 406.786 153.397C410.167 151.185 414.007 149.515 418.306 148.388C422.647 147.261 427.197 146.468 431.955 146.009C437.549 145.425 442.057 144.882 445.479 144.381C448.902 143.839 451.386 143.046 452.93 142.002C454.474 140.959 455.247 139.414 455.247 137.369V136.993C455.247 133.028 453.994 129.96 451.49 127.789C449.027 125.619 445.521 124.534 440.971 124.534C436.171 124.534 432.352 125.598 429.514 127.727C426.675 129.814 424.797 132.444 423.879 135.616L399.21 133.612C400.462 127.769 402.925 122.718 406.598 118.46C410.271 114.161 415.009 110.864 420.811 108.568C426.654 106.23 433.416 105.062 441.097 105.062C446.439 105.062 451.553 105.688 456.436 106.94C461.362 108.192 465.724 110.133 469.522 112.763C473.362 115.393 476.388 118.774 478.601 122.906C480.813 126.996 481.919 131.901 481.919 137.619V202.484H456.624V189.148H455.873C454.328 192.154 452.262 194.804 449.674 197.1C447.086 199.354 443.977 201.128 440.345 202.422C436.714 203.674 432.519 204.3 427.76 204.3ZM435.399 185.892C439.323 185.892 442.787 185.12 445.792 183.576C448.798 181.99 451.156 179.861 452.867 177.19C454.579 174.518 455.434 171.492 455.434 168.111V157.905C454.6 158.448 453.452 158.949 451.991 159.408C450.572 159.825 448.965 160.222 447.17 160.598C445.375 160.932 443.58 161.245 441.785 161.537C439.99 161.787 438.363 162.017 436.902 162.226C433.771 162.685 431.037 163.415 428.7 164.417C426.362 165.419 424.546 166.775 423.252 168.487C421.958 170.156 421.311 172.243 421.311 174.748C421.311 178.379 422.626 181.155 425.256 183.075C427.927 184.953 431.308 185.892 435.399 185.892ZM502.612 202.484V106.314H528.47V123.094H529.472C531.225 117.125 534.168 112.617 538.3 109.57C542.432 106.481 547.191 104.936 552.575 104.936C553.911 104.936 555.351 105.02 556.896 105.187C558.44 105.354 559.797 105.583 560.965 105.876V129.543C559.713 129.167 557.981 128.833 555.769 128.541C553.556 128.249 551.532 128.103 549.695 128.103C545.772 128.103 542.265 128.958 539.177 130.67C536.13 132.339 533.709 134.677 531.914 137.682C530.161 140.687 529.284 144.152 529.284 148.075V202.484H502.612ZM630.73 106.314V126.349H572.814V106.314H630.73ZM585.963 83.2731H612.635V172.932C612.635 175.395 613.011 177.315 613.762 178.692C614.513 180.028 615.557 180.967 616.893 181.51C618.27 182.052 619.856 182.324 621.651 182.324C622.903 182.324 624.155 182.219 625.408 182.011C626.66 181.76 627.62 181.572 628.288 181.447L632.483 201.295C631.147 201.712 629.269 202.192 626.848 202.735C624.427 203.319 621.484 203.674 618.019 203.799C611.591 204.05 605.956 203.194 601.115 201.232C596.314 199.27 592.579 196.223 589.907 192.091C587.236 187.959 585.921 182.741 585.963 176.438V83.2731ZM650.671 202.484V74.2571H735.572V96.6092H677.782V127.163H729.937V149.515H677.782V202.484H650.671ZM753.306 202.484V106.314H779.978V202.484H753.306ZM766.705 93.9169C762.74 93.9169 759.338 92.6021 756.499 89.9724C753.703 87.301 752.304 84.1079 752.304 80.393C752.304 76.7198 753.703 73.5684 756.499 70.9387C759.338 68.2673 762.74 66.9316 766.705 66.9316C770.67 66.9316 774.051 68.2673 776.848 70.9387C779.686 73.5684 781.105 76.7198 781.105 80.393C781.105 84.1079 779.686 87.301 776.848 89.9724C774.051 92.6021 770.67 93.9169 766.705 93.9169ZM852.498 106.314V126.349H794.582V106.314H852.498ZM807.731 83.2731H834.403V172.932C834.403 175.395 834.779 177.315 835.53 178.692C836.281 180.028 837.325 180.967 838.661 181.51C840.038 182.052 841.624 182.324 843.419 182.324C844.671 182.324 845.923 182.219 847.176 182.011C848.428 181.76 849.388 181.572 850.056 181.447L854.251 201.295C852.915 201.712 851.037 202.192 848.616 202.735C846.195 203.319 843.252 203.674 839.788 203.799C833.36 204.05 827.725 203.194 822.883 201.232C818.082 199.27 814.347 196.223 811.675 192.091C809.004 187.959 807.689 182.741 807.731 176.438V83.2731ZM921.025 106.314V126.349H863.11V106.314H921.025ZM876.258 83.2731H902.931V172.932C902.931 175.395 903.306 177.315 904.058 178.692C904.809 180.028 905.853 180.967 907.188 181.51C908.566 182.052 910.152 182.324 911.947 182.324C913.199 182.324 914.451 182.219 915.703 182.011C916.956 181.76 917.916 181.572 918.583 181.447L922.778 201.295C921.443 201.712 919.564 202.192 917.143 202.735C914.722 203.319 911.78 203.674 908.315 203.799C901.887 204.05 896.252 203.194 891.41 201.232C886.61 199.27 882.874 196.223 880.203 192.091C877.532 187.959 876.217 182.741 876.258 176.438V83.2731ZM981.194 204.363C971.302 204.363 962.787 202.359 955.649 198.352C948.553 194.303 943.085 188.585 939.245 181.197C935.405 173.767 933.485 164.98 933.485 154.837C933.485 144.945 935.405 136.263 939.245 128.791C943.085 121.32 948.491 115.497 955.461 111.323C962.474 107.149 970.697 105.062 980.13 105.062C986.475 105.062 992.381 106.084 997.849 108.13C1003.36 110.133 1008.16 113.159 1012.25 117.208C1016.38 121.257 1019.6 126.349 1021.89 132.485C1024.19 138.579 1025.34 145.717 1025.34 153.898V161.224H944.129V144.694H1000.23C1000.23 140.854 999.393 137.452 997.724 134.489C996.054 131.525 993.738 129.209 990.774 127.539C987.852 125.828 984.45 124.972 980.568 124.972C976.519 124.972 972.93 125.911 969.799 127.789C966.71 129.626 964.289 132.11 962.536 135.24C960.783 138.329 959.886 141.773 959.844 145.571V161.286C959.844 166.045 960.721 170.156 962.474 173.621C964.269 177.085 966.794 179.757 970.05 181.635C973.305 183.513 977.166 184.452 981.633 184.452C984.596 184.452 987.309 184.035 989.772 183.2C992.235 182.365 994.343 181.113 996.096 179.444C997.849 177.774 999.185 175.729 1000.1 173.308L1024.77 174.936C1023.52 180.863 1020.95 186.039 1017.07 190.463C1013.23 194.846 1008.26 198.269 1002.17 200.731C996.117 203.152 989.125 204.363 981.194 204.363ZM1042.74 202.484V106.314H1068.6V123.094H1069.6C1071.35 117.125 1074.3 112.617 1078.43 109.57C1082.56 106.481 1087.32 104.936 1092.7 104.936C1094.04 104.936 1095.48 105.02 1097.02 105.187C1098.57 105.354 1099.93 105.583 1101.09 105.876V129.543C1099.84 129.167 1098.11 128.833 1095.9 128.541C1093.69 128.249 1091.66 128.103 1089.82 128.103C1085.9 128.103 1082.39 128.958 1079.31 130.67C1076.26 132.339 1073.84 134.677 1072.04 137.682C1070.29 140.687 1069.41 144.152 1069.41 148.075V202.484H1042.74ZM1132.85 184.953L1132.17 191.841C1131.62 197.35 1130.58 202.839 1129.03 208.307C1127.53 213.817 1125.95 218.805 1124.28 223.271C1122.65 227.737 1121.33 231.244 1120.33 233.79H1103.05C1103.68 231.327 1104.53 227.884 1105.62 223.459C1106.7 219.076 1107.73 214.151 1108.69 208.683C1109.65 203.215 1110.25 197.642 1110.5 191.966L1110.81 184.953H1132.85ZM1219.63 74.2571V202.484H1192.52V74.2571H1219.63ZM1268.11 146.886V202.484H1241.44V106.314H1266.86V123.281H1267.98C1270.11 117.688 1273.68 113.264 1278.69 110.008C1283.7 106.71 1289.77 105.062 1296.91 105.062C1303.59 105.062 1309.41 106.523 1314.38 109.444C1319.35 112.366 1323.21 116.54 1325.96 121.967C1328.72 127.351 1330.09 133.779 1330.09 141.251V202.484H1303.42V146.009C1303.46 140.124 1301.96 135.532 1298.91 132.235C1295.87 128.896 1291.67 127.226 1286.33 127.226C1282.74 127.226 1279.57 127.998 1276.81 129.543C1274.1 131.087 1271.97 133.341 1270.43 136.305C1268.92 139.226 1268.15 142.754 1268.11 146.886ZM1394.57 204.363C1384.72 204.363 1376.24 202.276 1369.15 198.102C1362.09 193.886 1356.67 188.042 1352.87 180.571C1349.11 173.099 1347.23 164.5 1347.23 154.775C1347.23 144.924 1349.13 136.284 1352.93 128.854C1356.77 121.382 1362.22 115.559 1369.27 111.385C1376.33 107.17 1384.72 105.062 1394.44 105.062C1402.83 105.062 1410.18 106.585 1416.48 109.632C1422.78 112.679 1427.77 116.958 1431.45 122.468C1435.12 127.977 1437.14 134.447 1437.52 141.877H1412.35C1411.64 137.077 1409.76 133.216 1406.71 130.294C1403.71 127.33 1399.76 125.849 1394.88 125.849C1390.75 125.849 1387.14 126.976 1384.05 129.23C1381 131.442 1378.62 134.677 1376.91 138.934C1375.2 143.192 1374.34 148.347 1374.34 154.399C1374.34 160.535 1375.18 165.753 1376.85 170.052C1378.56 174.351 1380.96 177.628 1384.05 179.882C1387.14 182.136 1390.75 183.263 1394.88 183.263C1397.93 183.263 1400.66 182.637 1403.08 181.384C1405.55 180.132 1407.57 178.317 1409.16 175.937C1410.78 173.516 1411.85 170.615 1412.35 167.234H1437.52C1437.1 174.581 1435.1 181.051 1431.51 186.644C1427.96 192.195 1423.06 196.536 1416.79 199.667C1410.53 202.797 1403.12 204.363 1394.57 204.363ZM1470.19 204.112C1466.05 204.112 1462.51 202.651 1459.54 199.729C1456.62 196.766 1455.16 193.218 1455.16 189.086C1455.16 184.995 1456.62 181.489 1459.54 178.567C1462.51 175.645 1466.05 174.184 1470.19 174.184C1474.19 174.184 1477.7 175.645 1480.7 178.567C1483.71 181.489 1485.21 184.995 1485.21 189.086C1485.21 191.841 1484.5 194.366 1483.08 196.662C1481.71 198.916 1479.89 200.731 1477.64 202.109C1475.38 203.444 1472.9 204.112 1470.19 204.112Z" fill="#CFCFCF"/>
</g>
<g style="mix-blend-mode:color-dodge">
<path d="M132.396 252.735V342.513H128.645V252.735H132.396Z" fill="#BCBCBC"/>
<path d="M273.164 252.735V342.513H269.412L187.341 257.996H186.872V342.513H183.121V252.735H186.872L268.943 337.252H269.412V252.735H273.164Z" fill="#BCBCBC"/>
<path d="M412.715 280.791H408.729C407.986 277.81 406.54 274.77 404.391 271.673C402.241 268.575 399.388 265.711 395.832 263.081C392.276 260.45 388.074 258.332 383.228 256.724C378.382 255.117 372.891 254.313 366.756 254.313C358.549 254.313 350.947 255.994 343.952 259.355C336.995 262.686 331.387 267.581 327.127 274.04C322.906 280.469 320.796 288.331 320.796 297.624C320.796 307.034 322.906 314.954 327.127 321.383C331.387 327.813 336.995 332.679 343.952 335.981C350.947 339.283 358.549 340.934 366.756 340.934C372.891 340.934 378.382 340.145 383.228 338.567C388.074 336.96 392.276 334.856 395.832 332.255C399.388 329.625 402.241 326.761 404.391 323.663C406.54 320.536 407.986 317.467 408.729 314.457H412.715C411.973 317.613 410.488 320.901 408.26 324.32C406.032 327.71 403.023 330.881 399.232 333.833C395.441 336.785 390.849 339.181 385.456 341.022C380.063 342.834 373.829 343.74 366.756 343.74C356.907 343.74 348.251 341.811 340.786 337.954C333.322 334.096 327.498 328.704 323.317 321.778C319.135 314.852 317.044 306.8 317.044 297.624C317.044 288.447 319.135 280.396 323.317 273.47C327.498 266.544 333.322 261.152 340.786 257.294C348.251 253.437 356.907 251.508 366.756 251.508C373.829 251.508 380.063 252.414 385.456 254.226C390.849 256.038 395.441 258.419 399.232 261.371C403.023 264.293 406.032 267.464 408.26 270.884C410.488 274.274 411.973 277.576 412.715 280.791Z" fill="#BCBCBC"/>
<path d="M548.969 297.624C548.969 306.771 546.878 314.808 542.696 321.734C538.515 328.66 532.692 334.067 525.227 337.954C517.762 341.811 509.106 343.74 499.257 343.74C489.37 343.74 480.694 341.797 473.229 337.91C465.765 334.023 459.942 328.616 455.76 321.69C451.617 314.764 449.546 306.742 449.546 297.624C449.546 288.477 451.637 280.455 455.819 273.558C460 266.631 465.823 261.225 473.288 257.338C480.752 253.451 489.409 251.508 499.257 251.508C509.106 251.508 517.762 253.451 525.227 257.338C532.692 261.196 538.515 266.588 542.696 273.514C546.878 280.44 548.969 288.477 548.969 297.624ZM545.217 297.624C545.217 289.032 543.283 281.492 539.413 275.004C535.544 268.487 530.151 263.417 523.234 259.793C516.356 256.14 508.363 254.313 499.257 254.313C490.191 254.313 482.199 256.125 475.281 259.749C468.403 263.344 463.01 268.4 459.101 274.917C455.232 281.404 453.298 288.973 453.298 297.624C453.298 306.157 455.213 313.683 459.043 320.2C462.873 326.688 468.227 331.773 475.105 335.455C482.023 339.108 490.073 340.934 499.257 340.934C508.363 340.934 516.375 339.123 523.292 335.499C530.21 331.846 535.603 326.775 539.472 320.287C543.341 313.77 545.256 306.216 545.217 297.624Z" fill="#BCBCBC"/>
<path d="M592.878 342.513V252.735H628.052C634.774 252.735 640.714 253.802 645.873 255.935C651.07 258.069 655.135 261.05 658.066 264.878C661.036 268.706 662.521 273.192 662.521 278.336C662.521 283.421 661.036 287.878 658.066 291.706C655.135 295.505 651.07 298.471 645.873 300.605C640.714 302.709 634.774 303.761 628.052 303.761H594.754V300.955H628.052C634.07 300.955 639.385 300.02 643.997 298.15C648.608 296.28 652.223 293.649 654.842 290.259C657.46 286.869 658.769 282.895 658.769 278.336C658.769 273.748 657.46 269.744 654.842 266.325C652.223 262.905 648.608 260.261 643.997 258.39C639.385 256.491 634.07 255.541 628.052 255.541H596.63V342.513H592.878ZM638.604 301.657L668.149 342.513H663.928L634.383 301.657H638.604Z" fill="#BCBCBC"/>
<path d="M707.647 342.513V252.735H742.82C749.542 252.735 755.483 253.86 760.641 256.111C765.839 258.361 769.904 261.459 772.835 265.404C775.805 269.349 777.29 273.894 777.29 279.037C777.29 284.122 775.805 288.637 772.835 292.583C769.904 296.499 765.839 299.582 760.641 301.832C755.483 304.053 749.542 305.164 742.82 305.164H709.523V302.358H742.82C748.839 302.358 754.154 301.365 758.766 299.377C763.377 297.39 766.992 294.643 769.611 291.136C772.229 287.629 773.538 283.596 773.538 279.037C773.538 274.449 772.229 270.387 769.611 266.851C766.992 263.314 763.377 260.553 758.766 258.566C754.154 256.549 748.839 255.541 742.82 255.541H711.399V342.513H707.647Z" fill="#BCBCBC"/>
<path d="M913.588 297.624C913.588 306.771 911.497 314.808 907.315 321.734C903.133 328.66 897.31 334.067 889.846 337.954C882.381 341.811 873.725 343.74 863.876 343.74C853.989 343.74 845.313 341.797 837.848 337.91C830.384 334.023 824.561 328.616 820.379 321.69C816.236 314.764 814.165 306.742 814.165 297.624C814.165 288.477 816.256 280.455 820.438 273.558C824.619 266.631 830.442 261.225 837.907 257.338C845.371 253.451 854.028 251.508 863.876 251.508C873.725 251.508 882.381 253.451 889.846 257.338C897.31 261.196 903.133 266.588 907.315 273.514C911.497 280.44 913.588 288.477 913.588 297.624ZM909.836 297.624C909.836 289.032 907.901 281.492 904.032 275.004C900.163 268.487 894.77 263.417 887.853 259.793C880.974 256.14 872.982 254.313 863.876 254.313C854.809 254.313 846.817 256.125 839.9 259.749C833.022 263.344 827.628 268.4 823.72 274.917C819.851 281.404 817.917 288.973 817.917 297.624C817.917 306.157 819.832 313.683 823.662 320.2C827.492 326.688 832.846 331.773 839.724 335.455C846.642 339.108 854.692 340.934 863.876 340.934C872.982 340.934 880.994 339.123 887.911 335.499C894.829 331.846 900.222 326.775 904.091 320.287C907.96 313.77 909.875 306.216 909.836 297.624Z" fill="#BCBCBC"/>
<path d="M957.497 342.513V252.735H992.67C999.392 252.735 1005.33 253.802 1010.49 255.935C1015.69 258.069 1019.75 261.05 1022.68 264.878C1025.66 268.706 1027.14 273.192 1027.14 278.336C1027.14 283.421 1025.66 287.878 1022.68 291.706C1019.75 295.505 1015.69 298.471 1010.49 300.605C1005.33 302.709 999.392 303.761 992.67 303.761H959.373V300.955H992.67C998.689 300.955 1004 300.02 1008.62 298.15C1013.23 296.28 1016.84 293.649 1019.46 290.259C1022.08 286.869 1023.39 282.895 1023.39 278.336C1023.39 273.748 1022.08 269.744 1019.46 266.325C1016.84 262.905 1013.23 260.261 1008.62 258.39C1004 256.491 998.689 255.541 992.67 255.541H961.249V342.513H957.497ZM1003.22 301.657L1032.77 342.513H1028.55L999.002 301.657H1003.22Z" fill="#BCBCBC"/>
<path d="M1062.89 342.513H1058.9L1101.81 252.735H1106.97L1149.88 342.513H1145.9L1104.63 256.242H1104.16L1062.89 342.513ZM1076.49 309.372H1132.29V312.178H1076.49V309.372Z" fill="#BCBCBC"/>
<path d="M1164.49 255.541V252.735H1245.63V255.541H1206.94V342.513H1203.19V255.541H1164.49Z" fill="#BCBCBC"/>
<path d="M1287.62 342.513V252.735H1351.63V255.541H1291.37V296.221H1348.11V299.027H1291.37V339.707H1353.27V342.513H1287.62Z" fill="#BCBCBC"/>
<path d="M1428.65 342.513H1397.23V252.735H1431.7C1442.76 252.735 1452.21 254.518 1460.07 258.083C1467.96 261.619 1474 266.704 1478.18 273.338C1482.4 279.972 1484.5 287.951 1484.46 297.273C1484.42 306.83 1482.19 314.983 1477.77 321.734C1473.4 328.456 1467.05 333.599 1458.72 337.164C1450.44 340.73 1440.41 342.513 1428.65 342.513ZM1400.98 339.707H1428.65C1439.75 339.707 1449.19 338.027 1456.96 334.666C1464.74 331.276 1470.64 326.41 1474.67 320.068C1478.73 313.727 1480.74 306.128 1480.7 297.273C1480.67 288.535 1478.71 281.054 1474.84 274.829C1471.01 268.604 1465.46 263.841 1458.19 260.538C1450.92 257.207 1442.09 255.541 1431.7 255.541H1400.98V339.707Z" fill="#BCBCBC"/>
</g>
</svg>
