<svg width="2111" height="592" viewBox="0 0 2111 592" fill="none" xmlns="http://www.w3.org/2000/svg">
<path d="M21 254.684H86.6276C89.1277 273.434 96.3155 286.56 108.191 294.06C120.691 302.81 137.88 307.186 159.756 307.186C179.131 307.186 193.819 303.748 203.82 296.873C213.82 289.997 218.82 279.997 218.82 266.871C218.82 246.871 190.694 230.62 134.442 218.12L132.567 217.182C132.567 217.182 130.067 216.557 125.067 215.307C93.1904 208.432 71.9395 201.244 61.3141 193.744C48.8136 186.868 40.0633 176.868 35.0631 163.742C28.8128 152.492 25.6877 138.116 25.6877 120.616C25.6877 89.9894 36.3131 65.926 57.564 48.4253C78.8148 31.5496 109.754 23.1118 150.38 23.1118C188.507 23.1118 217.883 31.8621 238.509 49.3628C259.76 68.7386 271.01 94.0521 272.26 125.303H234.759C220.383 125.303 210.07 118.741 203.82 105.615C200.695 99.3648 196.319 94.0521 190.694 89.6769C179.444 81.5516 164.131 77.4889 144.755 77.4889C126.004 77.4889 112.566 80.9266 104.441 87.8018C95.0655 94.6771 90.3778 104.365 90.3778 116.866C90.3778 133.741 108.503 146.242 144.755 154.367C155.38 157.492 163.193 159.367 168.193 159.992C179.444 163.742 189.132 166.868 197.257 169.368C206.007 171.243 212.883 172.805 217.883 174.055C226.633 177.805 235.384 181.556 244.134 185.306C256.634 192.806 266.322 202.494 273.198 214.369C280.073 227.495 283.51 241.87 283.51 257.496C283.51 291.247 272.26 317.499 249.759 336.249C227.258 353.75 195.382 362.5 154.13 362.5C111.629 362.5 79.7523 353.437 58.5015 335.312C35.3756 317.186 22.8751 290.31 21 254.684ZM514.145 355H449.455V208.744V195.619C449.455 180.618 444.767 169.68 435.392 162.805C426.641 155.93 416.641 152.492 405.39 152.492C394.14 152.492 384.139 155.93 375.389 162.805C366.639 169.68 362.264 180.618 362.264 195.619V355H296.636V208.744C296.636 166.242 307.574 137.804 329.45 123.428C351.951 109.053 376.639 101.24 403.515 99.9898C417.891 99.9898 431.954 101.552 445.704 104.678C459.455 107.803 471.955 114.053 483.206 123.428C492.581 115.303 503.519 109.678 516.02 106.553C529.145 102.802 542.583 100.615 556.334 99.9898C583.835 99.9898 609.148 107.178 632.274 121.553C655.4 135.929 666.963 164.992 666.963 208.744V355H634.149C624.774 355 616.961 352.187 610.711 346.562C605.086 340.312 602.273 332.499 602.273 323.124V195.619C602.273 180.618 597.585 169.68 588.21 162.805C579.46 155.93 569.459 152.492 558.209 152.492C546.958 152.492 536.646 155.93 527.27 162.805C518.52 169.68 514.145 180.618 514.145 195.619V208.744V355ZM829.157 229.37C820.407 233.745 808.219 237.808 792.593 241.558C778.218 244.683 771.03 246.246 771.03 246.246C759.779 249.371 751.654 253.433 746.654 258.434C742.279 265.309 740.091 272.184 740.091 279.059C740.091 288.435 742.904 295.935 748.529 301.56C754.154 306.561 762.28 309.061 772.905 309.061C790.406 309.061 804.156 304.06 814.157 294.06C824.157 284.06 829.157 270.309 829.157 252.808V229.37ZM844.158 344.687C831.032 351.562 816.969 355.625 801.969 356.875C787.593 358.75 774.78 359.688 763.53 359.688C741.029 359.688 721.34 353.75 704.465 341.874C687.589 329.374 679.151 309.061 679.151 280.935C679.151 254.684 686.652 235.933 701.652 224.682C717.278 213.432 736.966 205.932 760.717 202.181C763.842 202.181 767.592 201.869 771.967 201.244C776.343 199.994 781.343 199.056 786.968 198.431C814.469 194.681 828.22 186.556 828.22 174.055C828.22 164.68 823.22 158.742 813.219 156.242C803.844 153.117 795.093 151.554 786.968 151.554C778.218 151.554 770.405 152.804 763.53 155.305C756.654 157.805 751.654 162.492 748.529 169.368H685.714C688.214 149.992 696.964 134.054 711.965 121.553C728.841 107.178 752.904 99.9898 784.155 99.9898C819.157 99.9898 845.408 105.928 862.909 117.803C881.034 130.304 890.097 147.804 890.097 170.305V255.621C890.097 280.622 885.409 300.31 876.034 314.686C867.284 328.436 856.658 338.437 844.158 344.687ZM899.473 355V234.058C899.473 209.682 902.91 189.368 909.785 173.118C917.286 156.242 927.286 142.804 939.787 132.804C951.662 123.428 965.413 116.553 981.038 112.178C997.289 107.803 1013.85 105.615 1030.73 105.615C1031.98 105.615 1033.54 105.615 1035.42 105.615C1037.29 105.615 1038.85 105.615 1040.1 105.615V172.18H1018.54C1000.41 172.18 986.976 176.555 978.226 185.306C969.475 194.056 965.1 207.807 965.1 226.557V355H899.473ZM1157.3 355C1136.67 356.25 1114.17 355.938 1089.79 354.062C1066.04 352.187 1054.17 336.874 1054.17 308.123V32.4871H1087.92C1096.04 32.4871 1103.23 35.6123 1109.48 41.8625C1115.73 48.1128 1118.86 55.6131 1118.86 64.3634V106.553H1157.3V119.678C1157.3 129.053 1154.17 136.866 1147.92 143.117C1141.67 148.742 1134.17 151.554 1125.42 151.554H1118.86V290.31C1118.86 300.935 1125.11 306.248 1137.61 306.248H1157.3V355ZM1162.92 355V66.2385C1162.92 56.8631 1166.05 49.0503 1172.3 42.8001C1179.17 35.9248 1187.3 32.4871 1196.67 32.4871H1397.3V87.8018H1228.55V157.18H1354.18V178.743C1354.18 188.118 1350.74 196.244 1343.87 203.119C1337.61 209.369 1329.8 212.494 1320.43 212.494H1228.55V355H1162.92ZM1414.18 105.615H1447.93C1456.68 105.615 1464.18 108.74 1470.43 114.99C1476.68 121.241 1479.81 128.741 1479.81 137.491V355H1414.18V105.615ZM1414.18 32.4871H1447.93C1456.68 32.4871 1464.18 35.6123 1470.43 41.8625C1476.68 48.1128 1479.81 55.6131 1479.81 64.3634V84.0517H1414.18V32.4871ZM1593.25 355C1572.62 356.25 1550.12 355.938 1525.75 354.062C1502 352.187 1490.12 336.874 1490.12 308.123V32.4871H1523.87C1532 32.4871 1539.19 35.6123 1545.44 41.8625C1551.69 48.1128 1554.81 55.6131 1554.81 64.3634V106.553H1593.25V119.678C1593.25 129.053 1590.13 136.866 1583.87 143.117C1577.62 148.742 1570.12 151.554 1561.37 151.554H1554.81V290.31C1554.81 300.935 1561.06 306.248 1573.56 306.248H1593.25V355ZM1709.5 355C1688.88 356.25 1666.38 355.938 1642 354.062C1618.25 352.187 1606.38 336.874 1606.38 308.123V32.4871H1640.13C1648.25 32.4871 1655.44 35.6123 1661.69 41.8625C1667.94 48.1128 1671.07 55.6131 1671.07 64.3634V106.553H1709.5V119.678C1709.5 129.053 1706.38 136.866 1700.13 143.117C1693.88 148.742 1686.38 151.554 1677.63 151.554H1671.07V290.31C1671.07 300.935 1677.32 306.248 1689.82 306.248H1709.5V355ZM1888.57 278.122H1935.45C1928.58 304.373 1915.45 324.374 1896.07 338.124C1876.7 352.5 1852.32 359.688 1822.95 359.688C1787.32 359.688 1759.51 348.125 1739.51 324.999C1719.51 302.498 1709.5 270.309 1709.5 228.432C1709.5 188.431 1719.19 157.18 1738.57 134.679C1758.57 111.553 1786.38 99.9898 1822.01 99.9898C1859.51 99.9898 1888.57 111.24 1909.2 133.741C1929.2 156.867 1939.2 189.056 1939.2 230.308C1939.2 232.808 1939.2 234.995 1939.2 236.87C1939.2 238.745 1939.2 239.995 1939.2 240.62C1939.2 243.746 1938.89 245.933 1938.26 247.183H1776.07C1776.69 266.559 1781.38 280.935 1790.13 290.31C1798.26 300.31 1810.45 305.311 1826.7 305.311C1837.32 305.311 1846.39 303.123 1853.89 298.748C1855.76 298.123 1857.32 297.185 1858.57 295.935C1860.45 294.06 1862.32 292.185 1864.2 290.31C1864.82 288.435 1867.01 285.935 1870.76 282.81C1875.14 279.684 1881.07 278.122 1888.57 278.122ZM1776.07 204.994H1871.7C1870.45 188.118 1866.07 175.618 1858.57 167.493C1850.45 158.742 1838.88 154.367 1823.88 154.367C1810.13 154.367 1798.88 158.742 1790.13 167.493C1781.38 176.243 1776.69 188.743 1776.07 204.994ZM1949.51 355V234.058C1949.51 209.682 1952.95 189.368 1959.83 173.118C1967.33 156.242 1977.33 142.804 1989.83 132.804C2001.7 123.428 2015.45 116.553 2031.08 112.178C2047.33 107.803 2063.89 105.615 2080.77 105.615C2082.02 105.615 2083.58 105.615 2085.46 105.615C2087.33 105.615 2088.89 105.615 2090.15 105.615V172.18H2068.58C2050.46 172.18 2037.02 176.555 2028.27 185.306C2019.52 194.056 2015.14 207.807 2015.14 226.557V355H1949.51Z" fill="#8A7C6A"/>
<path d="M34.0562 429.126V565.165H28.3711V429.126H34.0562Z" fill="#8A7C6A"/>
<path d="M247.362 429.126V565.165H241.677L117.315 437.097H116.604V565.165H110.919V429.126H116.604L240.966 557.194H241.677V429.126H247.362Z" fill="#8A7C6A"/>
<path d="M458.824 471.638H452.784C451.659 467.121 449.468 462.516 446.211 457.821C442.953 453.127 438.63 448.788 433.241 444.802C427.852 440.816 421.486 437.606 414.143 435.17C406.8 432.735 398.479 431.517 389.182 431.517C376.746 431.517 365.227 434.063 354.627 439.156C344.086 444.204 335.588 451.622 329.133 461.408C322.737 471.151 319.539 483.063 319.539 497.145C319.539 511.405 322.737 523.406 329.133 533.148C335.588 542.891 344.086 550.264 354.627 555.268C365.227 560.272 376.746 562.774 389.182 562.774C398.479 562.774 406.8 561.578 414.143 559.187C421.486 556.752 427.852 553.563 433.241 549.622C438.63 545.636 442.953 541.296 446.211 536.602C449.468 531.864 451.659 527.214 452.784 522.653H458.824C457.699 527.436 455.449 532.418 452.073 537.599C448.698 542.736 444.138 547.54 438.394 552.013C432.649 556.486 425.691 560.117 417.518 562.907C409.346 565.653 399.901 567.025 389.182 567.025C374.258 567.025 361.141 564.103 349.83 558.257C338.519 552.412 329.695 544.241 323.359 533.746C317.022 523.251 313.854 511.051 313.854 497.145C313.854 483.24 317.022 471.04 323.359 460.545C329.695 450.05 338.519 441.879 349.83 436.034C361.141 430.188 374.258 427.266 389.182 427.266C399.901 427.266 409.346 428.638 417.518 431.384C425.691 434.13 432.649 437.739 438.394 442.211C444.138 446.64 448.698 451.445 452.073 456.626C455.449 461.763 457.699 466.767 458.824 471.638Z" fill="#8A7C6A"/>
<path d="M665.29 497.145C665.29 511.006 662.122 523.184 655.785 533.68C649.449 544.175 640.625 552.367 629.314 558.257C618.003 564.103 604.886 567.025 589.962 567.025C574.98 567.025 561.833 564.08 550.522 558.191C539.211 552.301 530.387 544.108 524.051 533.613C517.773 523.118 514.635 510.962 514.635 497.145C514.635 483.285 517.803 471.129 524.139 460.678C530.476 450.183 539.3 441.99 550.611 436.1C561.922 430.211 575.039 427.266 589.962 427.266C604.886 427.266 618.003 430.211 629.314 436.1C640.625 441.946 649.449 450.116 655.785 460.611C662.122 471.107 665.29 483.285 665.29 497.145ZM659.605 497.145C659.605 484.126 656.674 472.701 650.811 462.87C644.948 452.995 636.776 445.311 626.294 439.82C615.871 434.285 603.761 431.517 589.962 431.517C576.223 431.517 564.113 434.262 553.631 439.754C543.208 445.201 535.036 452.862 529.114 462.737C523.251 472.568 520.32 484.037 520.32 497.145C520.32 510.076 523.221 521.479 529.025 531.355C534.829 541.186 542.942 548.891 553.364 554.471C563.846 560.006 576.046 562.774 589.962 562.774C603.761 562.774 615.901 560.029 626.383 554.537C636.865 549.002 645.037 541.319 650.9 531.488C656.763 521.612 659.664 510.165 659.605 497.145Z" fill="#8A7C6A"/>
<path d="M731.827 565.165V429.126H785.125C795.31 429.126 804.312 430.742 812.129 433.975C820.005 437.207 826.164 441.724 830.606 447.525C835.106 453.327 837.357 460.124 837.357 467.918C837.357 475.624 835.106 482.377 830.606 488.178C826.164 493.935 820.005 498.43 812.129 501.662C804.312 504.851 795.31 506.445 785.125 506.445H734.669V502.194H785.125C794.244 502.194 802.298 500.777 809.286 497.943C816.274 495.108 821.752 491.123 825.72 485.986C829.688 480.849 831.672 474.826 831.672 467.918C831.672 460.966 829.688 454.899 825.72 449.718C821.752 444.536 816.274 440.529 809.286 437.694C802.298 434.816 794.244 433.377 785.125 433.377H737.512V565.165H731.827ZM801.114 503.257L845.884 565.165H839.488L794.718 503.257H801.114Z" fill="#8A7C6A"/>
<path d="M905.736 565.165V429.126H959.034C969.22 429.126 978.221 430.83 986.038 434.24C993.915 437.65 1000.07 442.344 1004.52 448.323C1009.02 454.301 1011.27 461.187 1011.27 468.981C1011.27 476.686 1009.02 483.528 1004.52 489.507C1000.07 495.441 993.915 500.113 986.038 503.522C978.221 506.888 969.22 508.571 959.034 508.571H908.579V504.319H959.034C968.154 504.319 976.208 502.814 983.196 499.803C990.184 496.791 995.662 492.629 999.629 487.314C1003.6 482 1005.58 475.889 1005.58 468.981C1005.58 462.028 1003.6 455.873 999.629 450.515C995.662 445.156 990.184 440.971 983.196 437.96C976.208 434.905 968.154 433.377 959.034 433.377H911.421V565.165H905.736Z" fill="#8A7C6A"/>
<path d="M1217.8 497.145C1217.8 511.006 1214.63 523.184 1208.29 533.68C1201.96 544.175 1193.13 552.367 1181.82 558.257C1170.51 564.103 1157.39 567.025 1142.47 567.025C1127.49 567.025 1114.34 564.08 1103.03 558.191C1091.72 552.301 1082.9 544.108 1076.56 533.613C1070.28 523.118 1067.14 510.962 1067.14 497.145C1067.14 483.285 1070.31 471.129 1076.65 460.678C1082.98 450.183 1091.81 441.99 1103.12 436.1C1114.43 430.211 1127.55 427.266 1142.47 427.266C1157.39 427.266 1170.51 430.211 1181.82 436.1C1193.13 441.946 1201.96 450.116 1208.29 460.611C1214.63 471.107 1217.8 483.285 1217.8 497.145ZM1212.11 497.145C1212.11 484.126 1209.18 472.701 1203.32 462.87C1197.46 452.995 1189.28 445.311 1178.8 439.82C1168.38 434.285 1156.27 431.517 1142.47 431.517C1128.73 431.517 1116.62 434.262 1106.14 439.754C1095.72 445.201 1087.54 452.862 1081.62 462.737C1075.76 472.568 1072.83 484.037 1072.83 497.145C1072.83 510.076 1075.73 521.479 1081.53 531.355C1087.34 541.186 1095.45 548.891 1105.87 554.471C1116.35 560.006 1128.55 562.774 1142.47 562.774C1156.27 562.774 1168.41 560.029 1178.89 554.537C1189.37 549.002 1197.55 541.319 1203.41 531.488C1209.27 521.612 1212.17 510.165 1212.11 497.145Z" fill="#8A7C6A"/>
<path d="M1284.33 565.165V429.126H1337.63C1347.82 429.126 1356.82 430.742 1364.64 433.975C1372.51 437.207 1378.67 441.724 1383.11 447.525C1387.61 453.327 1389.86 460.124 1389.86 467.918C1389.86 475.624 1387.61 482.377 1383.11 488.178C1378.67 493.935 1372.51 498.43 1364.64 501.662C1356.82 504.851 1347.82 506.445 1337.63 506.445H1287.18V502.194H1337.63C1346.75 502.194 1354.81 500.777 1361.79 497.943C1368.78 495.108 1374.26 491.123 1378.23 485.986C1382.2 480.849 1384.18 474.826 1384.18 467.918C1384.18 460.966 1382.2 454.899 1378.23 449.718C1374.26 444.536 1368.78 440.529 1361.79 437.694C1354.81 434.816 1346.75 433.377 1337.63 433.377H1290.02V565.165H1284.33ZM1353.62 503.257L1398.39 565.165H1392L1347.23 503.257H1353.62Z" fill="#8A7C6A"/>
<path d="M1444.03 565.165H1437.99L1503.01 429.126H1510.83L1575.86 565.165H1569.82L1507.28 434.44H1506.57L1444.03 565.165ZM1464.64 514.948H1549.21V519.199H1464.64V514.948Z" fill="#8A7C6A"/>
<path d="M1598 433.377V429.126H1720.94V433.377H1662.31V565.165H1656.63V433.377H1598Z" fill="#8A7C6A"/>
<path d="M1784.57 565.165V429.126H1881.57V433.377H1790.25V495.02H1876.24V499.271H1790.25V560.914H1884.06V565.165H1784.57Z" fill="#8A7C6A"/>
<path d="M1998.27 565.165H1950.66V429.126H2002.89C2019.65 429.126 2033.98 431.827 2045.89 437.229C2057.85 442.588 2067 450.293 2073.33 460.346C2079.73 470.398 2082.9 482.488 2082.84 496.614C2082.78 511.095 2079.4 523.45 2072.71 533.68C2066.08 543.865 2056.46 551.659 2043.84 557.062C2031.29 562.464 2016.1 565.165 1998.27 565.165ZM1956.34 560.914H1998.27C2015.09 560.914 2029.39 558.368 2041.18 553.275C2052.96 548.138 2061.9 540.765 2068 531.155C2074.16 521.546 2077.21 510.032 2077.15 496.614C2077.09 483.373 2074.13 472.037 2068.27 462.604C2062.47 453.172 2054.06 445.953 2043.04 440.949C2032.03 435.901 2018.64 433.377 2002.89 433.377H1956.34V560.914Z" fill="#8A7C6A"/>
</svg>
